<svg width="117" height="98" viewBox="0 0 117 98" fill="none" xmlns="http://www.w3.org/2000/svg">
<g filter="url(#filter0_f_90_137)">
<path d="M36.0344 47.2813C36.0344 47.2813 36.5704 40.5825 49.8984 36.9645C63.2264 33.3464 93.12 38.8782 96.2581 39.8255C99.3962 40.7728 109.363 45.4222 111.737 55.5532C114.112 65.6843 109.38 73.1543 109.38 73.1543M79.026 81.3184C77.3282 84.6135 69.308 97.8683 53.0504 91.5064C34.5573 84.2703 47.6517 67.0558 47.6517 67.0558M41.3151 62.8467C38.5124 63.9308 32.7141 65.4712 28.0689 62.1575M28.0689 62.1575C27.934 62.0614 27.8009 61.962 27.6686 61.8569C21.2596 56.8087 22.0686 48.7951 23.2876 45.3709C24.5083 41.9433 25.9391 39.6237 26.7772 38.2396C27.6153 36.8556 34.191 29.7446 35.3786 27.6346C36.5671 25.527 41.3373 12.9318 49.4345 8.09086C57.5342 3.24897 63.5409 5.48082 66.4047 5.7028C69.2685 5.92477 76.2841 8.36877 80.6362 12.1785C84.9909 15.9872 87.9332 23.7667 87.3844 30.021C87.0736 33.5965 85.9094 36.179 84.9693 37.7354M28.0689 62.1575C19.5428 71.0037 5.86831 72.1185 5.86831 72.1185M15.4567 69.1125C15.4567 69.1125 7.4224 66.075 5.55276 56.229C3.68312 46.3831 9.32195 40.2923 9.32195 40.2923C9.32195 40.2923 9.88199 44.2204 15.9321 49.3697C21.9822 54.5189 20.562 61.9586 20.3344 63.4567C20.1059 64.9526 18.2529 67.7822 17.0583 67.5841C15.8637 67.3861 12.5633 64.9597 10.9043 58.4733C9.24529 51.9869 10.301 46.7256 10.301 46.7256M13.9844 63.4755C13.9844 63.4755 15.6372 61.5453 15.3459 57.6252C15.0546 53.7051 13.9585 51.5095 13.9585 51.5095M10.9018 58.4743C10.9018 58.4743 7.52546 56.55 6.89429 54.1785M35.034 49.4675C37.0801 43.2567 43.657 41.4619 48.219 40.9239C52.7809 40.3859 69.7709 41.5474 74.1422 41.9106C78.5161 42.2728 94.0833 45.6331 96.9554 46.919C99.8248 48.2059 114.168 53.5722 110.958 68.5405C107.749 83.5088 92.1187 83.4884 89.4125 83.6829C86.7062 83.8774 75.5853 80.3759 71.088 78.6376C66.5907 76.8993 50.7258 68.9072 46.4581 66.3707C42.1904 63.8341 32.4425 57.3235 35.034 49.4675ZM67.0071 60.4976C68.3798 56.7772 71.7469 49.5746 83.128 51.3169C94.5092 53.0592 93.2101 62.9189 92.5267 65.6672C91.8433 68.4155 86.9467 78.5687 73.7632 72.7637C65.8138 69.2636 67.0071 60.4976 67.0071 60.4976Z" stroke="white" stroke-opacity="0.5" stroke-miterlimit="10"/>
</g>
<defs>
<filter id="filter0_f_90_137" x="0.671875" y="0.497314" width="116.232" height="97.2139" filterUnits="userSpaceOnUse" color-interpolation-filters="sRGB">
<feFlood flood-opacity="0" result="BackgroundImageFix"/>
<feBlend mode="normal" in="SourceGraphic" in2="BackgroundImageFix" result="shape"/>
<feGaussianBlur stdDeviation="2" result="effect1_foregroundBlur_90_137"/>
</filter>
</defs>
</svg>
