<svg width="290" height="57" viewBox="0 0 290 57" fill="none" xmlns="http://www.w3.org/2000/svg">
<path d="M23.5527 18.854H8.26855V22.5259C8.34505 22.5259 8.40625 22.5565 8.45215 22.6177C8.49805 22.6789 8.5516 22.7095 8.61279 22.7095C8.58219 22.7095 8.89583 22.6253 9.55371 22.457C10.2116 22.2734 10.9689 22.1051 11.8257 21.9521C12.6825 21.7992 13.5163 21.7227 14.3271 21.7227C16.1631 21.7227 17.6089 21.9751 18.6646 22.48C19.7202 22.9849 20.4775 23.6963 20.9365 24.6143C21.4108 25.5322 21.6938 26.5649 21.7856 27.7124C21.8927 28.8446 21.9463 30.4051 21.9463 32.394V41.2295C20.7682 40.7705 19.9268 40.4339 19.4219 40.2197C18.9323 40.0055 18.5575 39.8449 18.2974 39.7378C18.2974 39.2482 18.1979 38.9346 17.999 38.7969C17.4941 39.0876 16.9281 39.4089 16.3008 39.7607C15.6735 40.0973 14.855 40.3957 13.8452 40.6558C12.8354 40.9159 11.6344 41.0459 10.2422 41.0459C8.91113 41.0459 7.61068 40.8011 6.34082 40.3115C5.07096 39.8219 4.03825 39.1258 3.24268 38.2231C2.4624 37.3052 2.07227 36.2725 2.07227 35.125C2.07227 34.054 2.5695 32.9372 3.56396 31.7744C4.55843 30.5964 5.88949 29.6248 7.55713 28.8599C9.22477 28.0796 11.0454 27.6895 13.019 27.6895C14.09 27.6895 15.1074 27.8501 16.0713 28.1714C17.0505 28.4774 17.7925 28.8216 18.2974 29.2041V27.0928C17.6548 26.2666 17.0428 25.7082 16.4614 25.4175C15.88 25.1268 14.9697 24.9814 13.7305 24.9814C12.124 25.0426 10.8542 25.1803 9.9209 25.3945C9.00293 25.5934 8.00846 25.9147 6.9375 26.3584C5.88184 26.7868 4.99447 27.1234 4.27539 27.3682V25.6699C4.38249 25.5781 4.53548 25.4481 4.73438 25.2798C4.93327 25.1115 5.06331 24.9891 5.12451 24.9126C5.20101 24.8361 5.24691 24.7902 5.26221 24.7749V18.854H0.557617V16.1001H23.5527V18.854ZM18.2974 33.3809C18.2974 32.6771 17.5018 32.0881 15.9106 31.6138C14.3348 31.1395 13.2179 30.9023 12.5601 30.9023C10.8924 30.9023 9.37777 31.2542 8.01611 31.958C6.65446 32.6465 5.5835 33.4574 4.80322 34.3906C4.02295 35.3239 3.63281 36.0889 3.63281 36.6855C3.81641 37.3128 4.28304 37.7489 5.03271 37.9937C5.78239 38.2384 6.57796 38.3608 7.41943 38.3608C8.97998 38.3608 10.4181 38.1543 11.7339 37.7412C13.0649 37.3281 14.2201 36.8232 15.1992 36.2266C16.1937 35.6299 16.9587 35.0562 17.4941 34.5054C18.0296 33.9546 18.2974 33.5798 18.2974 33.3809ZM49.8525 16.1001L49.8066 18.854H30.4375L30.4834 32.394C30.4834 34.2606 30.7894 35.6758 31.4014 36.6396C32.0286 37.6035 33.4285 38.1772 35.6011 38.3608C36.9168 38.3608 38.1561 37.9554 39.3188 37.1445C40.4969 36.3184 41.4378 35.2856 42.1416 34.0464C42.8607 32.7918 43.2202 31.5985 43.2202 30.4663L43.1743 21.8145L47.9707 23.4668V46.9668C47.9707 48.4049 47.6112 49.7207 46.8921 50.9141C46.1883 52.1227 45.2321 53.1401 44.0234 53.9663C42.8148 54.7925 41.4684 55.4121 39.9844 55.8252C38.5003 56.2536 36.9933 56.4678 35.4634 56.4678C32.5259 56.4678 30.055 56.0164 28.0508 55.1138C26.0465 54.2111 24.5701 53.1554 23.6216 51.9468C22.6883 50.7381 22.2217 49.6901 22.2217 48.8027C22.237 47.9154 22.5124 47.0739 23.0479 46.2783C23.568 45.498 24.2489 44.8096 25.0903 44.2129C25.9471 43.6315 26.9339 43.1572 28.0508 42.79C29.1676 42.4382 30.2463 42.2622 31.2866 42.2622L34.2012 46.1636C33.528 46.2095 32.5182 46.3472 31.1719 46.5767C29.8255 46.8062 28.4715 47.2192 27.1099 47.8159C25.7635 48.4279 25.0903 49.2235 25.0903 50.2026C25.1362 50.5698 25.381 51.113 25.8247 51.832C26.2837 52.5664 27.0793 53.2472 28.2114 53.8745C29.3589 54.5171 30.8506 54.846 32.6865 54.8613C34.5837 54.8613 36.3737 54.5094 38.0566 53.8057C39.7549 53.1019 41.1089 52.0998 42.1187 50.7993C43.1437 49.4989 43.6562 47.9995 43.6562 46.3013V36.9609C43.4115 37.3587 42.6847 37.8636 41.4761 38.4756C40.2827 39.0876 38.355 39.3936 35.6929 39.3936C34.0252 39.3936 32.457 39.0799 30.9883 38.4526C29.5348 37.8101 28.3491 36.8844 27.4312 35.6758C26.5285 34.4671 26.0771 33.0902 26.0771 31.5449V18.854H22.8184V16.1001H49.8525ZM71.8838 18.854H56.5996V22.5259C56.6761 22.5259 56.7373 22.5565 56.7832 22.6177C56.8291 22.6789 56.8826 22.7095 56.9438 22.7095C56.9132 22.7095 57.2269 22.6177 57.8848 22.4341C58.5579 22.2505 59.3229 22.0898 60.1797 21.9521C61.0365 21.7992 61.8626 21.7227 62.6582 21.7227C64.4941 21.7227 65.9399 21.9751 66.9956 22.48C68.0513 22.9849 68.8086 23.6963 69.2676 24.6143C69.7419 25.5322 70.0249 26.5649 70.1167 27.7124C70.2238 28.8446 70.2773 30.4051 70.2773 32.394V41.459C69.4359 41.1224 68.6785 40.7935 68.0054 40.4722C67.3322 40.1356 66.8656 39.8908 66.6055 39.7378C66.6055 39.2329 66.5137 38.9193 66.3301 38.7969C65.8252 39.0876 65.2591 39.4089 64.6318 39.7607C64.0046 40.0973 63.186 40.3957 62.1763 40.6558C61.1665 40.9159 59.9655 41.0459 58.5732 41.0459C57.2422 41.0459 55.9417 40.8011 54.6719 40.3115C53.402 39.8219 52.3693 39.1258 51.5737 38.2231C50.7935 37.3052 50.4033 36.2725 50.4033 35.125C50.4033 34.054 50.9006 32.9372 51.895 31.7744C52.8895 30.5964 54.2205 29.6248 55.8882 28.8599C57.5558 28.0796 59.3765 27.6895 61.3501 27.6895C62.4211 27.6895 63.4385 27.8501 64.4023 28.1714C65.3662 28.4774 66.1006 28.8216 66.6055 29.2041V27.0928C66.0088 26.2972 65.4121 25.7464 64.8154 25.4404C64.2188 25.1344 63.3008 24.9814 62.0615 24.9814C60.4551 25.0426 59.1852 25.1803 58.252 25.3945C57.334 25.5934 56.3395 25.9147 55.2686 26.3584C54.2129 26.7868 53.3255 27.1234 52.6064 27.3682V25.6699C52.7135 25.5781 52.8665 25.4481 53.0654 25.2798C53.2643 25.1115 53.3944 24.9891 53.4556 24.9126C53.5321 24.8361 53.578 24.7902 53.5933 24.7749V18.854H48.8887V16.1001H71.8838V18.854ZM66.6055 33.3809C66.6055 32.6771 65.8175 32.0881 64.2417 31.6138C62.6659 31.1395 61.549 30.9023 60.8911 30.9023C59.2235 30.9023 57.7012 31.2542 56.3242 31.958C54.9626 32.6618 53.8916 33.4803 53.1113 34.4136C52.3311 35.3315 51.9409 36.0889 51.9409 36.6855C52.1551 37.3281 52.6294 37.7718 53.3638 38.0166C54.1134 38.2461 54.909 38.3608 55.7505 38.3608C57.311 38.3608 58.7568 38.1543 60.0879 37.7412C61.4342 37.3281 62.597 36.8232 63.5762 36.2266C64.5553 35.6146 65.305 35.0332 65.8252 34.4824C66.3454 33.9316 66.6055 33.5645 66.6055 33.3809ZM93.02 18.854H77.9653V24.7749C78.3631 24.5913 78.9827 24.2624 79.8242 23.7881C80.681 23.3138 81.5301 22.9619 82.3716 22.7324C83.2284 22.5029 84.2534 22.3882 85.4468 22.3882C86.9614 22.3882 88.4302 22.8548 89.853 23.7881C91.2759 24.7061 91.9873 25.9759 91.9873 27.5977C91.9873 28.6686 91.6278 29.6095 90.9087 30.4204C90.1896 31.2313 89.3252 31.8356 88.3154 32.2334C87.321 32.6312 86.4565 32.8301 85.7222 32.8301L91.0464 39.3018L88.1318 41.4131L79.939 31.6826L81.4536 28.5386C82.2645 28.7681 83.1136 28.8828 84.001 28.8828C85.3626 28.8828 86.4642 28.5462 87.3057 27.873C88.1624 27.1999 88.5908 26.2666 88.5908 25.0732C88.5908 23.8493 87.7188 23.2373 85.9746 23.2373C84.8271 23.2373 83.6261 23.7498 82.3716 24.7749C81.117 25.7847 80.0614 26.978 79.2046 28.355C78.3478 29.7319 77.9194 30.8641 77.9194 31.7515V41.3672L73.9722 39.6001V18.854H71.0576V16.1001H73.8345C73.8345 13.6675 73.5973 11.5332 73.123 9.69727C72.6641 7.86133 72.1133 6.34668 71.4707 5.15332C70.8128 3.95996 70.0785 2.83545 69.2676 1.77979C68.4567 0.724121 68.0207 0.135091 67.9595 0.0126953H72.6182C72.8324 0.211589 73.1919 0.639974 73.6968 1.29785C74.2017 1.94043 74.7677 2.89665 75.395 4.1665C76.0376 5.43636 76.6113 7.1193 77.1162 9.21533C77.6211 11.2961 77.8735 13.591 77.8735 16.1001H93.02V18.854ZM115.074 18.854H99.79V22.5259C99.8665 22.5259 99.9277 22.5565 99.9736 22.6177C100.02 22.6789 100.073 22.7095 100.134 22.7095C100.104 22.7095 100.417 22.6177 101.075 22.4341C101.748 22.2505 102.513 22.0898 103.37 21.9521C104.227 21.7992 105.053 21.7227 105.849 21.7227C107.685 21.7227 109.13 21.9751 110.186 22.48C111.242 22.9849 111.999 23.6963 112.458 24.6143C112.932 25.5322 113.215 26.5649 113.307 27.7124C113.414 28.8446 113.468 30.4051 113.468 32.394V41.459C112.626 41.1224 111.869 40.7935 111.196 40.4722C110.523 40.1356 110.056 39.8908 109.796 39.7378C109.796 39.2329 109.704 38.9193 109.521 38.7969C109.016 39.0876 108.45 39.4089 107.822 39.7607C107.195 40.0973 106.376 40.3957 105.367 40.6558C104.357 40.9159 103.156 41.0459 101.764 41.0459C100.433 41.0459 99.1322 40.8011 97.8623 40.3115C96.5924 39.8219 95.5597 39.1258 94.7642 38.2231C93.9839 37.3052 93.5938 36.2725 93.5938 35.125C93.5938 34.054 94.091 32.9372 95.0854 31.7744C96.0799 30.5964 97.411 29.6248 99.0786 28.8599C100.746 28.0796 102.567 27.6895 104.541 27.6895C105.611 27.6895 106.629 27.8501 107.593 28.1714C108.557 28.4774 109.291 28.8216 109.796 29.2041V27.0928C109.199 26.2972 108.603 25.7464 108.006 25.4404C107.409 25.1344 106.491 24.9814 105.252 24.9814C103.646 25.0426 102.376 25.1803 101.442 25.3945C100.524 25.5934 99.5299 25.9147 98.459 26.3584C97.4033 26.7868 96.516 27.1234 95.7969 27.3682V25.6699C95.904 25.5781 96.057 25.4481 96.2559 25.2798C96.4548 25.1115 96.5848 24.9891 96.646 24.9126C96.7225 24.8361 96.7684 24.7902 96.7837 24.7749V18.854H92.0791V16.1001H115.074V18.854ZM109.796 33.3809C109.796 32.6771 109.008 32.0881 107.432 31.6138C105.856 31.1395 104.739 30.9023 104.082 30.9023C102.414 30.9023 100.892 31.2542 99.5146 31.958C98.153 32.6618 97.082 33.4803 96.3018 34.4136C95.5215 35.3315 95.1313 36.0889 95.1313 36.6855C95.3455 37.3281 95.8198 37.7718 96.5542 38.0166C97.3039 38.2461 98.0994 38.3608 98.9409 38.3608C100.501 38.3608 101.947 38.1543 103.278 37.7412C104.625 37.3281 105.787 36.8232 106.767 36.2266C107.746 35.6146 108.495 35.0332 109.016 34.4824C109.536 33.9316 109.796 33.5645 109.796 33.3809ZM120.559 6.64502C120.559 7.1958 120.299 7.78483 119.779 8.41211C119.274 9.03939 118.662 9.55957 117.943 9.97266C117.224 10.3857 116.574 10.5923 115.992 10.5923C116.16 10.3934 116.398 10.1486 116.704 9.85791C117.01 9.56722 117.247 9.30713 117.415 9.07764C117.599 8.83285 117.69 8.58805 117.69 8.34326C117.69 7.97607 117.583 7.68538 117.369 7.47119C117.155 7.257 116.742 6.90511 116.13 6.41553L118.54 4.18945C118.846 4.18945 119.259 4.47249 119.779 5.03857C120.299 5.58936 120.559 6.12484 120.559 6.64502ZM121.729 18.854H114.546V16.1001H121.729V18.854ZM144.977 18.854H142.476V27.5518C141.588 27.0316 140.318 26.5802 138.666 26.1978C137.014 25.8153 135.606 25.624 134.443 25.624C133.479 25.624 132.324 25.7388 130.978 25.9683C129.647 26.1825 128.446 26.5726 127.375 27.1387C126.319 27.6895 125.792 28.4238 125.792 29.3418C125.792 29.7243 125.944 30.1297 126.25 30.5581C126.572 30.9712 127.061 31.1777 127.719 31.1777C128.438 31.1777 129.479 30.9329 130.84 30.4434C132.217 29.9385 133.227 29.5942 133.87 29.4106C134.528 29.2118 135.484 29.1123 136.738 29.1123C137.916 29.1123 139.033 29.3265 140.089 29.7549C141.16 30.168 142.009 30.7723 142.636 31.5679C143.279 32.3634 143.6 33.2814 143.6 34.3218C143.6 35.561 143.149 36.6855 142.246 37.6953C141.343 38.7051 140.257 39.5007 138.987 40.082C137.733 40.6481 136.532 40.9694 135.384 41.0459C136.486 42.1475 137.534 42.6982 138.528 42.6982C138.85 42.6982 139.194 42.6523 139.561 42.5605L141.879 46.3472C141.757 46.4543 141.458 46.5843 140.984 46.7373C140.525 46.8903 139.852 46.9668 138.964 46.9668C137.694 46.9668 136.731 46.6073 136.073 45.8882C135.415 45.1691 134.734 44.1976 134.03 42.9736C133.342 41.7497 132.776 41.1377 132.332 41.1377C131.185 41.0918 130.045 40.9771 128.913 40.7935C127.796 40.5946 126.755 40.1968 125.792 39.6001C124.828 39.0034 124.346 38.1849 124.346 37.1445C124.346 36.4561 124.575 35.9665 125.034 35.6758C125.508 35.3698 126.044 35.2168 126.641 35.2168C127.375 35.2168 127.964 35.3239 128.408 35.5381C128.851 35.7523 129.395 36.0812 130.037 36.5249C130.695 36.9533 131.345 37.2822 131.988 37.5117C132.646 37.7412 133.525 37.856 134.627 37.856C135.407 37.856 136.44 37.7183 137.725 37.4429C139.026 37.1675 140.173 36.762 141.167 36.2266C142.162 35.6758 142.659 35.0103 142.659 34.23C142.659 33.8016 142.506 33.4574 142.2 33.1973C141.894 32.9219 141.542 32.7383 141.145 32.6465C140.747 32.5394 140.334 32.4858 139.905 32.4858C139.339 32.4858 138.735 32.57 138.092 32.7383C137.465 32.9066 136.241 33.2355 134.42 33.7251C132.6 34.2147 131.483 34.4595 131.07 34.4595C130.014 34.4595 128.928 34.1611 127.811 33.5645C126.709 32.9525 125.784 32.1034 125.034 31.0171C124.3 29.9308 123.925 28.7451 123.91 27.46C123.91 26.0677 124.43 24.9432 125.47 24.0864C126.511 23.2144 127.757 22.5947 129.211 22.2275C130.664 21.8604 132.034 21.6768 133.319 21.6768C134.176 21.6768 135.254 21.8145 136.555 22.0898C137.87 22.3499 138.873 22.5718 139.561 22.7554V18.854H121.293V16.1001H144.977V18.854ZM183.004 18.854H159.802V16.1001H183.004V18.854ZM181.099 27.0928C181.099 28.0872 180.533 29.1123 179.401 30.168C178.284 31.2236 177.343 31.9351 176.578 32.3022L173.136 28.4009C174.421 28.2785 175.5 27.8195 176.372 27.0239C177.259 26.2131 177.703 25.4175 177.703 24.6372C177.703 24.3159 177.45 23.9334 176.945 23.4897C176.44 23.0308 175.783 22.8013 174.972 22.8013C173.977 22.8013 172.853 23.2603 171.598 24.1782C170.344 25.0962 169.273 26.2819 168.385 27.7354C167.513 29.1888 167.077 30.6499 167.077 32.1187V41.8491L162.671 39.5542V22.5718H167.123V24.3159C167.245 24.1935 167.697 23.9105 168.477 23.4668C169.257 23.0231 170.16 22.6253 171.185 22.2734C172.225 21.9062 173.273 21.7227 174.329 21.7227C175.216 21.7227 176.188 21.9445 177.244 22.3882C178.315 22.8166 179.225 23.4438 179.975 24.27C180.724 25.0962 181.099 26.0371 181.099 27.0928ZM206.779 18.854H200.514V23.375C200.927 23.4668 201.271 23.5815 201.547 23.7192C201.822 23.8416 201.998 23.9334 202.075 23.9946V26.7026C200.254 26.0754 198.357 25.7617 196.383 25.7617C195.037 25.7617 193.576 26.0371 192 26.5879C190.424 27.1387 189.613 27.9954 189.567 29.1582C189.567 30.3822 191.304 30.9941 194.777 30.9941C195.068 30.9941 195.565 30.9788 196.269 30.9482C196.972 30.9023 197.431 30.8717 197.646 30.8564V32.9678C196.544 32.9984 195.274 33.0596 193.836 33.1514C192.398 33.2279 191.105 33.5033 189.958 33.9775C188.825 34.4518 188.259 35.2244 188.259 36.2954C188.259 37.1828 188.779 37.9095 189.82 38.4756C190.875 39.0264 192.061 39.3018 193.377 39.3018C196.024 39.3018 198.349 38.6974 200.354 37.4888C202.373 36.2648 204.071 34.666 205.448 32.6924V38.4985C203.826 39.5236 202.258 40.1968 200.744 40.5181C199.229 40.8394 197.684 41 196.108 41C194.563 41 192.819 40.7705 190.875 40.3115C188.948 39.8372 187.288 39.1641 185.896 38.292C184.519 37.4046 183.83 36.3796 183.83 35.2168C183.83 34.0387 184.274 33.1055 185.161 32.417C186.064 31.7285 187.097 31.1089 188.259 30.5581C187.647 30.2062 187.135 29.9155 186.722 29.686C186.324 29.4565 186.003 29.1812 185.758 28.8599C185.513 28.5386 185.391 28.1178 185.391 27.5977C185.391 26.5879 185.796 25.7464 186.607 25.0732C187.433 24.3848 188.458 23.8646 189.682 23.5127C190.906 23.1608 192.153 22.916 193.423 22.7783C194.693 22.6406 195.886 22.5718 197.003 22.5718V18.854H182.292V16.1001H206.779V18.854ZM230.784 18.854H225.988V25.2568C226.982 26.1748 227.632 26.8327 227.938 27.2305C228.244 27.613 228.596 28.3167 228.994 29.3418H225.942C225.942 27.5824 225.445 26.259 224.45 25.3716C223.456 24.4842 222.178 24.0405 220.618 24.0405C218.812 24.0405 217.168 24.5301 215.684 25.5093C214.215 26.4884 213.06 27.7277 212.218 29.2271C211.377 30.7111 210.956 32.1416 210.956 33.5186C210.956 34.3753 211.147 35.1785 211.53 35.9282C211.928 36.6626 212.562 37.2593 213.435 37.7183C214.322 38.1772 215.454 38.4067 216.831 38.4067C218.59 38.4067 219.944 38.116 220.893 37.5347C221.857 36.938 222.477 36.4484 222.752 36.0659H227.64C227.457 36.8156 226.944 37.5729 226.103 38.3379C225.261 39.1029 224.244 39.7378 223.05 40.2427C221.872 40.7476 220.786 41 219.792 41C217.864 41 215.913 40.4645 213.939 39.3936C211.966 38.3073 210.352 36.9303 209.097 35.2627C207.858 33.5951 207.238 31.9504 207.238 30.3286C207.238 29.4106 207.651 28.2249 208.478 26.7715C209.319 25.3027 210.497 24.0252 212.012 22.939C213.526 21.8527 215.255 21.3096 217.198 21.3096C218.453 21.3096 219.524 21.4702 220.411 21.7915C221.299 22.0975 221.933 22.3882 222.316 22.6636V18.854H206.114V16.1001H230.784V18.854ZM238.197 13.6904C238.136 13.7516 237.96 13.7822 237.669 13.7822C237.424 13.7822 237.21 13.7516 237.026 13.6904C235.925 11.5332 235.221 10.2174 234.915 9.74316C234.578 9.28418 234.15 8.98584 233.63 8.84814C233.125 8.71045 232.643 8.5804 232.184 8.45801C231.74 8.32031 231.381 8.01432 231.105 7.54004C231.044 7.44824 230.93 7.09635 230.761 6.48438C230.593 5.8571 230.264 5.13037 229.774 4.3042V3.77637H230.669C232.459 4.32715 233.729 4.83203 234.479 5.29102C235.229 5.7347 235.703 6.17074 235.902 6.59912C236.116 7.01221 236.414 7.87663 236.797 9.19238C237.179 10.4928 237.631 11.6632 238.151 12.7036C238.166 12.8413 238.174 12.9714 238.174 13.0938C238.189 13.2008 238.197 13.3997 238.197 13.6904ZM239.551 18.854H230.21V16.1001H239.551V18.854ZM236.935 41.5278L233.079 39.3936V21.6768H236.935V41.5278ZM265.438 18.854H239.115V16.1001H265.438V18.854ZM263.602 31.5449C263.602 33.2126 263.097 34.7884 262.087 36.2725C261.077 37.7412 259.823 38.904 258.323 39.7607C256.839 40.6175 255.447 41.0459 254.146 41.0459C252.968 41.0459 251.699 40.564 250.337 39.6001C248.991 38.6362 247.331 37.221 245.357 35.3545V54.8154L241.685 52.8877V22.5259H245.265V28.1255C245.541 27.8348 246 27.3452 246.642 26.6567C247.3 25.9683 248.05 25.2492 248.891 24.4995C249.733 23.7345 250.658 23.0614 251.668 22.48C252.678 21.8833 253.626 21.585 254.514 21.585C255.355 21.585 256.296 21.8757 257.336 22.457C258.392 23.0231 259.394 23.7804 260.343 24.729C261.307 25.6776 262.087 26.7562 262.684 27.9648C263.296 29.1582 263.602 30.3516 263.602 31.5449ZM261.33 28.8828C261.33 28.5156 261.177 28.0031 260.871 27.3452C260.58 26.6873 260.129 26.0907 259.517 25.5552C258.905 25.0044 258.147 24.729 257.245 24.729C256.235 24.729 255.103 25.0656 253.848 25.7388C252.594 26.4119 251.4 27.2611 250.268 28.2861C249.136 29.2959 248.203 30.3363 247.468 31.4072C246.749 32.4629 246.39 33.3273 246.39 34.0005C246.39 34.4748 246.657 34.9644 247.193 35.4692C247.728 35.9588 248.417 36.3796 249.258 36.7314C250.1 37.068 250.934 37.2363 251.76 37.2363C253.137 37.2363 254.422 36.9456 255.615 36.3643C256.824 35.7676 257.841 35.0332 258.667 34.1611C259.509 33.2891 260.159 32.3787 260.618 31.4302C261.092 30.4663 261.33 29.6172 261.33 28.8828ZM289.167 18.854H282.902V23.375C283.315 23.4668 283.659 23.5815 283.935 23.7192C284.21 23.8416 284.386 23.9334 284.462 23.9946V26.7026C282.642 26.0754 280.745 25.7617 278.771 25.7617C277.425 25.7617 275.964 26.0371 274.388 26.5879C272.812 27.1387 272.001 27.9954 271.955 29.1582C271.955 30.3822 273.692 30.9941 277.165 30.9941C277.455 30.9941 277.952 30.9788 278.656 30.9482C279.36 30.9023 279.819 30.8717 280.033 30.8564V32.9678C278.932 32.9984 277.662 33.0596 276.224 33.1514C274.785 33.2279 273.493 33.5033 272.345 33.9775C271.213 34.4518 270.647 35.2244 270.647 36.2954C270.647 37.1828 271.167 37.9095 272.208 38.4756C273.263 39.0264 274.449 39.3018 275.765 39.3018C278.411 39.3018 280.737 38.6974 282.741 37.4888C284.761 36.2648 286.459 34.666 287.836 32.6924V38.4985C286.214 39.5236 284.646 40.1968 283.131 40.5181C281.617 40.8394 280.071 41 278.496 41C276.95 41 275.206 40.7705 273.263 40.3115C271.335 39.8372 269.675 39.1641 268.283 38.292C266.906 37.4046 266.218 36.3796 266.218 35.2168C266.218 34.0387 266.661 33.1055 267.549 32.417C268.451 31.7285 269.484 31.1089 270.647 30.5581C270.035 30.2062 269.522 29.9155 269.109 29.686C268.712 29.4565 268.39 29.1812 268.146 28.8599C267.901 28.5386 267.778 28.1178 267.778 27.5977C267.778 26.5879 268.184 25.7464 268.995 25.0732C269.821 24.3848 270.846 23.8646 272.07 23.5127C273.294 23.1608 274.541 22.916 275.811 22.7783C277.08 22.6406 278.274 22.5718 279.391 22.5718V18.854H264.68V16.1001H289.167V18.854Z" fill="white"/>
</svg>
