<svg width="408" height="586" viewBox="0 0 408 586" fill="none" xmlns="http://www.w3.org/2000/svg">
<path d="M156.832 275.524C159.363 271.228 162.607 267.13 167.621 263.741C180.99 254.701 202.898 253.219 204.268 262.956C205.985 275.161 200.833 282.298 188.749 292.893C172.329 307.288 132.346 304.66 146.304 269.012C145.832 280.552 153.99 280.352 156.832 275.524Z" fill="#F0F0F0"/>
<path d="M251.703 275.524C249.173 271.228 245.929 267.13 240.915 263.741C227.545 254.701 205.637 253.219 204.267 262.956C202.55 275.161 207.703 282.298 219.787 292.893C236.206 307.288 276.189 304.66 262.231 269.012C262.704 280.552 254.546 280.352 251.703 275.524Z" fill="#F0F0F0"/>
<path d="M179.75 130.109C168.751 132.351 156.505 135.97 148.628 141.701C147.393 142.601 146.648 143.993 146.648 145.487V206.757C146.648 210.289 150.558 212.601 153.77 210.916C161.3 206.965 170.925 204.28 179.75 202.481C195.915 199.187 212.631 199.187 228.796 202.481C237.621 204.279 247.247 206.964 254.776 210.916C257.989 212.601 261.898 210.29 261.898 206.757V145.488C261.898 143.993 261.153 142.601 259.918 141.702C252.041 135.971 239.796 132.351 228.796 130.11C212.631 126.816 195.915 126.816 179.75 130.109Z" fill="#F0F0F0"/>
<path d="M241.966 3.75614C217.122 -1.25205 191.42 -1.25205 166.576 3.75614C96.9507 17.7926 92.0011 59.7082 94.3974 76.333C96.8218 93.1486 131.044 111.081 143.023 129.48C142.895 129.269 142.753 129.033 142.596 128.766C142.256 128.185 141.834 127.484 141.387 126.664C141.273 126.46 141.157 126.249 141.035 126.032C140.897 125.827 140.756 125.618 140.61 125.401C140.317 124.973 140.032 124.515 139.723 124.044C139.419 123.574 139.102 123.084 138.774 122.578C138.602 122.329 138.461 122.061 138.274 121.809C138.086 121.558 137.894 121.302 137.701 121.044C136.914 120.018 136.175 118.885 135.291 117.798C134.368 116.739 133.505 115.581 132.515 114.497C132.013 113.962 131.507 113.422 130.999 112.88L130.245 112.058C129.986 111.791 129.703 111.544 129.434 111.287C128.356 110.253 127.297 109.2 126.152 108.268C125.584 107.798 125.049 107.296 124.483 106.845C123.91 106.401 123.344 105.962 122.787 105.53C122.244 105.076 121.669 104.688 121.113 104.293C120.557 103.897 120.012 103.509 119.483 103.131C118.38 102.442 117.378 101.705 116.384 101.137C115.406 100.537 114.493 100.009 113.674 99.5479C112.852 99.0953 112.126 98.7058 111.523 98.3914C110.913 98.0937 110.438 97.8335 110.103 97.6859C109.769 97.527 109.592 97.4432 109.592 97.4432C109.592 97.4432 110.388 97.5007 111.749 97.7952C112.426 97.95 113.256 98.1344 114.179 98.4273C114.642 98.5742 115.135 98.7298 115.654 98.8942C116.172 99.0658 116.694 99.2941 117.252 99.5072C118.381 99.9166 119.535 100.494 120.777 101.079C121.386 101.392 121.99 101.748 122.621 102.095C123.255 102.438 123.887 102.813 124.502 103.233C125.123 103.648 125.754 104.069 126.393 104.497C127.026 104.933 127.62 105.432 128.236 105.914C129.5 106.849 130.632 107.961 131.789 109.047C132.071 109.325 132.367 109.591 132.639 109.877L133.429 110.758C133.949 111.35 134.466 111.939 134.979 112.524C135.516 113.09 135.923 113.747 136.38 114.354C136.821 114.971 137.256 115.58 137.685 116.18C138.131 116.767 138.455 117.417 138.815 118.024C139.162 118.638 139.502 119.238 139.832 119.822C140.53 120.962 140.95 122.193 141.425 123.255C141.866 124.334 142.335 125.306 142.551 126.207C142.822 127.096 143.025 127.883 143.2 128.528C143.545 129.821 143.706 130.575 143.706 130.575C143.706 130.575 143.7 130.566 143.698 130.563C144.842 132.465 145.741 134.371 146.328 136.282C146.488 136.799 147.147 136.996 147.579 136.653C155.853 130.089 169.802 126.159 181.793 123.863C196.629 121.022 211.908 121.022 226.744 123.863C238.734 126.16 252.684 130.089 260.958 136.653C261.39 136.996 262.05 136.799 262.208 136.282C265.155 126.71 275.833 117.241 286.758 107.966C285.476 108.744 284.178 109.511 282.847 110.225C281.89 110.745 280.933 111.266 279.981 111.784C279.018 112.283 278.041 112.745 277.082 113.222C275.167 114.185 273.248 115.062 271.375 115.87C269.507 116.693 267.703 117.482 265.952 118.153C264.209 118.842 262.546 119.452 261.012 120.015C259.487 120.605 258.061 121.049 256.799 121.454C255.542 121.868 254.431 122.197 253.52 122.476C251.695 123.028 250.638 123.31 250.638 123.31C250.638 123.31 251.584 122.774 253.265 121.894C254.107 121.457 255.125 120.917 256.309 120.334C257.486 119.74 258.813 119.071 260.262 118.34C261.7 117.601 263.255 116.802 264.918 115.999C266.581 115.197 268.281 114.236 270.091 113.355C270.988 112.897 271.911 112.453 272.823 111.966C273.731 111.471 274.652 110.974 275.588 110.488C276.522 109.999 277.463 109.506 278.407 109.01C279.338 108.493 280.272 107.974 281.206 107.456C283.101 106.459 284.925 105.361 286.744 104.313C288.57 103.273 290.3 102.165 292.008 101.129C293.641 100.003 295.303 99.0091 296.762 97.9277C298.263 96.8893 299.612 95.8342 300.878 94.8693C301.489 94.3633 302.073 93.878 302.63 93.4167C303.18 92.949 303.683 92.4837 304.168 92.0559C305.104 91.1724 305.921 90.3919 306.552 89.7095C307.196 89.0367 307.683 88.4852 308.02 88.1116C308.336 87.7605 308.508 87.5697 308.529 87.5474C311.547 83.7603 313.611 80.0203 314.143 76.3338C316.541 59.7082 311.591 17.7926 241.966 3.75614ZM151.622 125.547C151.475 124.872 151.235 123.886 150.978 122.624C150.715 121.363 150.383 119.833 150.044 118.073C149.632 116.336 149.167 114.378 148.66 112.24C148.209 110.1 147.532 107.819 146.878 105.397C146.533 104.191 146.243 102.936 145.829 101.687C145.404 100.441 145.008 99.1592 144.589 97.8606C143.845 95.2309 142.661 92.6641 141.704 89.9736C141.194 88.64 140.539 87.355 139.96 86.0325L139.064 84.0572C138.752 83.4043 138.379 82.7818 138.039 82.1425C137.342 80.8743 136.719 79.563 135.973 78.3299C135.201 77.112 134.431 75.8988 133.668 74.6953C131.985 72.3975 130.406 70.0646 128.537 68.0733C128.089 67.5593 127.645 67.0501 127.204 66.5449C126.738 66.0644 126.25 65.6119 125.789 65.1426C125.321 64.6781 124.859 64.2192 124.402 63.765C124.173 63.5384 123.945 63.3125 123.719 63.0882C123.475 62.8831 123.232 62.6788 122.992 62.4769C122.028 61.662 121.091 60.8695 120.183 60.1033C119.221 59.3961 118.293 58.713 117.401 58.0569C116.528 57.3689 115.599 56.839 114.749 56.2827C113.889 55.74 113.095 55.1853 112.306 54.7311C110.707 53.8628 109.345 53.0272 108.175 52.423C105.822 51.245 104.48 50.5315 104.48 50.5315C104.48 50.5315 105.925 50.984 108.45 51.8459C109.704 52.2961 111.188 52.9362 112.906 53.6561C113.758 54.0288 114.626 54.5005 115.566 54.9578C116.497 55.4311 117.491 55.9092 118.453 56.5317C119.434 57.1295 120.455 57.752 121.513 58.3961C122.509 59.1296 123.539 59.8878 124.597 60.6675C124.862 60.8639 125.129 61.061 125.397 61.2597C125.648 61.4776 125.9 61.6979 126.155 61.9182C126.663 62.362 127.177 62.8113 127.697 63.2654C128.215 63.7219 128.751 64.1729 129.256 64.6629C129.739 65.1737 130.225 65.6885 130.716 66.2089C131.69 67.256 132.738 68.2792 133.612 69.4588C134.514 70.6137 135.491 71.7478 136.324 72.9857C137.14 74.2347 137.961 75.4942 138.786 76.7584C139.581 78.0386 140.253 79.3882 140.99 80.7059C141.334 81.3763 141.714 82.0308 142.028 82.7124L142.932 84.7691C143.515 86.1443 144.173 87.4875 144.682 88.8682C145.188 90.2498 145.667 91.6289 146.134 92.9913C146.358 93.6753 146.627 94.3418 146.81 95.0265C146.999 95.7089 147.188 96.3873 147.374 97.0593C147.743 98.4042 148.122 99.7219 148.455 101.02C148.792 102.317 149.004 103.611 149.274 104.855C149.525 106.103 149.77 107.316 150.007 108.489C150.249 109.66 150.353 110.82 150.523 111.916C150.831 114.114 151.104 116.129 151.295 117.912C151.446 119.696 151.542 121.257 151.63 122.54C151.724 123.823 151.761 124.836 151.803 125.524C151.839 126.213 151.859 126.581 151.859 126.581C151.859 126.581 151.773 126.222 151.622 125.547ZM177.905 89.3703C177.864 90.8675 177.856 92.3321 177.789 93.7551C177.613 96.5988 177.448 99.2845 177.212 101.757C176.952 104.23 176.676 106.49 176.433 108.49C176.189 110.488 175.863 112.212 175.643 113.641C175.42 115.068 175.206 116.185 175.077 116.949C174.943 117.712 174.871 118.119 174.871 118.119C174.871 118.119 174.881 117.707 174.899 116.933C174.922 116.16 174.932 115.023 174.992 113.582C175.044 112.14 175.107 110.389 175.18 108.381C175.211 106.376 175.246 104.118 175.325 101.66C175.327 99.2015 175.329 96.5374 175.332 93.72C175.316 92.3129 175.239 90.8699 175.193 89.3958C175.114 87.9225 175.153 86.4132 175.01 84.8888C174.905 83.3636 174.796 81.8129 174.687 80.2422C174.651 79.456 174.53 78.6731 174.443 77.8838C174.357 77.0944 174.271 76.3011 174.184 75.5046C174.097 74.7088 174.009 73.9091 173.921 73.1078C173.793 72.3121 173.664 71.514 173.535 70.7143C173.256 69.1188 173.073 67.5002 172.684 65.9192C172.342 64.3309 172.054 62.7299 171.678 61.1544C171.266 59.5869 170.854 58.0266 170.447 56.4774C169.972 54.945 169.502 53.4246 169.037 51.9226C168.611 50.4077 168.008 48.9655 167.507 47.5177C167.246 46.7971 166.986 46.0819 166.73 45.374C166.446 44.6749 166.165 43.9821 165.886 43.2965C165.325 41.9269 164.829 40.5653 164.249 39.2756C163.093 36.6953 162.056 34.2267 160.984 31.9912C159.947 29.7421 158.975 27.6845 158.093 25.868C157.219 24.0467 156.457 22.4584 155.829 21.1511C154.563 18.5381 153.872 17.0241 153.872 17.0241C153.872 17.0241 154.815 18.4016 156.407 20.8478C157.209 22.0674 158.165 23.559 159.213 25.2989C159.744 26.1657 160.309 27.0883 160.904 28.0604C161.485 29.0405 162.062 30.09 162.684 31.1763C163.29 32.2705 163.971 33.3855 164.584 34.5874C165.203 35.787 165.843 37.0273 166.502 38.3027C167.166 39.5757 167.751 40.9309 168.404 42.2917C168.72 42.9773 169.04 43.67 169.362 44.3692C169.65 45.0835 169.94 45.805 170.234 46.5321C171.447 49.4253 172.529 52.4876 173.517 55.6322C173.956 57.2213 174.397 58.8223 174.841 60.4297C175.245 62.0467 175.568 63.6884 175.931 65.3214C176.309 66.9535 176.481 68.6176 176.747 70.2593C176.87 71.0822 176.992 71.9027 177.114 72.7215C177.195 73.5436 177.276 74.364 177.356 75.1805C177.503 76.8143 177.695 78.4337 177.751 80.0387C177.806 81.6421 177.86 83.2272 177.914 84.7851C177.993 86.3422 177.928 87.8722 177.905 89.3703ZM225.029 42.227C225.025 43.0076 225.019 43.7961 225.014 44.5911C225.008 45.3868 225.002 46.1889 224.996 46.9966C224.949 47.8035 224.901 48.6152 224.853 49.4324C224.737 51.0654 224.711 52.7303 224.454 54.384C224.237 56.0417 224.05 57.7177 223.804 59.3922C223.503 61.0578 223.201 62.7291 222.898 64.4011C222.578 66.07 222.113 67.7061 221.728 69.3535C221.521 70.1731 221.338 70.9984 221.112 71.8085C220.873 72.6154 220.635 73.4191 220.397 74.2204C219.911 75.8182 219.482 77.4224 218.916 78.9588C218.365 80.5 217.822 82.0228 217.287 83.5201C216.776 85.0261 216.152 86.4603 215.574 87.8762C214.982 89.2873 214.425 90.6752 213.845 92.0096C212.639 94.661 211.49 97.1615 210.374 99.4441C209.232 101.717 208.151 103.783 207.196 105.612C206.247 107.443 205.318 108.984 204.596 110.277C203.871 111.568 203.267 112.565 202.87 113.253C202.469 113.939 202.255 114.304 202.255 114.304C202.255 114.304 202.413 113.913 202.709 113.18C203.01 112.448 203.429 111.366 204.006 110.006C204.574 108.645 205.265 106.992 206.057 105.096C206.817 103.191 207.671 101.045 208.639 98.7242C209.542 96.3769 210.52 93.8349 211.556 91.1453C212.054 89.7957 212.525 88.3958 213.028 86.9743C213.502 85.5433 214.097 84.1163 214.539 82.6174C215.014 81.1281 215.497 79.6149 215.986 78.0817C216.243 77.3195 216.451 76.5389 216.661 75.7552C216.881 74.9746 217.103 74.1901 217.325 73.4023C217.549 72.6154 217.773 71.8252 217.998 71.0327C218.211 70.237 218.379 69.4301 218.573 68.6264C218.929 67.0142 219.367 65.4092 219.66 63.7794C219.972 62.1529 220.284 60.5271 220.595 58.9069C220.853 57.2795 221.053 55.6506 221.284 54.0384C221.404 53.2331 221.506 52.4278 221.557 51.6233C221.633 50.8204 221.71 50.0206 221.785 49.2265C221.861 48.4316 221.934 47.6415 222.008 46.8569C222.042 46.07 222.074 45.2886 222.106 44.5128C222.287 41.4121 222.248 38.408 222.258 35.5532C222.199 34.1261 222.141 32.7382 222.085 31.3958C222.061 30.723 222.037 30.0613 222.014 29.4124C221.964 28.7644 221.914 28.1291 221.866 27.5057C221.77 26.2583 221.679 25.0627 221.592 23.9254C221.509 22.7865 221.369 21.7114 221.271 20.697C221.052 18.6706 220.9 16.8948 220.691 15.443C220.323 12.5323 220.149 10.8562 220.149 10.8562C220.149 10.8562 220.605 12.4756 221.338 15.3321C221.724 16.7567 222.11 18.5038 222.521 20.5158C222.724 21.5222 222.975 22.5893 223.175 23.7243C223.359 24.8632 223.551 26.0603 223.753 27.3094C223.853 27.9351 223.954 28.5736 224.058 29.2249C224.134 29.8793 224.211 30.5466 224.29 31.225C224.439 32.5834 224.592 33.9897 224.723 35.4374C224.804 36.89 224.887 38.3833 224.972 39.9085C224.994 40.2908 225.015 40.6747 225.036 41.0602C225.033 41.4489 225.031 41.8368 225.029 42.227ZM280.189 47.4236C279.748 50.5354 279.003 53.7894 277.836 57.017C277.578 57.8366 277.256 58.6387 276.935 59.448C276.61 60.2557 276.312 61.0834 275.934 61.8807C275.571 62.6852 275.206 63.4953 274.839 64.3086C274.43 65.1019 274.018 65.8984 273.605 66.6989C271.889 69.8635 270.023 73.0176 267.925 76.0162C265.818 79.0075 263.592 81.9158 261.26 84.6606C258.971 87.442 256.494 89.9896 254.119 92.4606C252.889 93.6585 251.718 94.8709 250.5 95.9891C249.277 97.1 248.114 98.2206 246.921 99.2478C244.577 101.346 242.275 103.234 240.129 104.946C239.046 105.79 238.008 106.599 237.022 107.369C236.012 108.109 235.055 108.812 234.155 109.472C232.361 110.798 230.728 111.872 229.416 112.787C228.087 113.678 227.014 114.342 226.296 114.81C225.574 115.274 225.188 115.521 225.188 115.521C225.188 115.521 226.581 114.345 229.018 112.286C230.22 111.246 231.68 109.983 233.354 108.535C234.182 107.802 235.062 107.022 235.99 106.201C236.907 105.369 237.87 104.493 238.876 103.579C240.868 101.736 242.996 99.7099 245.21 97.5414C247.427 95.3721 249.668 93.0025 251.987 90.5579C254.258 88.0725 256.549 85.4595 258.774 82.7331C261.027 80.0267 263.164 77.1694 265.18 74.2427C267.245 71.3456 269.086 68.3151 270.774 65.2783C272.451 62.2327 273.906 59.1479 275.091 56.084C276.284 53.0216 277.174 49.976 277.755 47.0413C278.088 45.5767 278.213 44.1305 278.411 42.7346C278.493 41.3347 278.636 39.9747 278.58 38.6706C278.616 37.3601 278.453 36.119 278.368 34.9258C278.321 34.3296 278.195 33.7614 278.117 33.1995C278.015 32.6424 277.971 32.0869 277.82 31.5737C277.343 29.4899 276.771 27.6941 276.189 26.2535C275.885 25.5352 275.614 24.8935 275.378 24.3348C275.098 23.7945 274.86 23.3348 274.667 22.9629C274.282 22.2118 274.076 21.8112 274.076 21.8112C274.076 21.8112 274.338 22.1791 274.83 22.8695C275.075 23.2183 275.376 23.6484 275.73 24.1544C276.038 24.6892 276.392 25.3029 276.788 25.9917C277.546 27.3876 278.359 29.1507 279.044 31.2673C279.25 31.7876 279.351 32.3519 279.512 32.921C279.65 33.4948 279.838 34.079 279.945 34.6928C280.153 35.9211 280.401 37.218 280.475 38.5876C280.635 39.9548 280.596 41.3818 280.618 42.8655C280.52 44.3381 280.447 45.872 280.189 47.4236Z" fill="#F0F0F0"/>
<path d="M379.472 447.434C366.254 420.304 300.827 393.247 266.247 381.176L256.798 348.549C256.424 347.258 255.239 346.392 253.85 346.392C252.334 346.392 251.069 347.437 250.841 348.878C248.069 366.422 229.399 381.667 206.271 395.982C181.016 382.854 160.369 368.203 157.649 348.938C157.455 347.558 156.311 346.526 154.868 346.431C153.413 346.33 152.129 347.21 151.738 348.561L142.361 380.936C110.372 388.488 42.2748 420.326 29.0671 447.433C20.9444 464.105 9.67608 527.573 0 586H66.6269C68.2482 580.689 70.1759 576.424 72.4723 573.763C74.4471 577.005 75.9684 581.187 77.1252 586H132.311C131.513 580.788 130.709 575.579 129.907 570.395C121.591 516.625 112.99 461.023 122.978 451.902C135.524 440.445 155.226 429.528 176.086 417.969C210.832 398.717 246.699 378.845 253.988 353.663L262.126 381.761C239.342 413.479 200.24 430.025 168.773 443.339C147.171 452.479 130.107 459.698 124.851 469.33C119.611 478.933 125.584 524.05 136.449 586H327.365C328.408 580.957 329.891 576.586 331.935 573.23C334.304 575.976 336.255 580.433 337.863 586H408C398.562 527.574 387.595 464.106 379.472 447.434ZM179.92 411.243C163.226 402.543 150.269 392.957 146.322 382.074L154.478 353.915C159.496 372.126 178.842 386.033 202.275 398.423C195.07 402.763 187.51 407.023 179.92 411.243ZM137.038 512.707C137.038 508.904 140.23 505.822 144.166 505.822C148.103 505.822 151.295 508.904 151.295 512.707C151.295 516.51 148.103 519.593 144.166 519.593C140.229 519.593 137.038 516.51 137.038 512.707ZM149.95 563.888C146.013 563.888 142.822 560.805 142.822 557.002C142.822 553.199 146.013 550.117 149.95 550.117C153.888 550.117 157.079 553.199 157.079 557.002C157.079 560.805 153.888 563.888 149.95 563.888ZM266.371 563.888C262.433 563.888 259.242 560.805 259.242 557.002C259.242 553.199 262.433 550.117 266.371 550.117C270.308 550.117 273.499 553.199 273.499 557.002C273.499 560.805 270.308 563.888 266.371 563.888ZM272.156 519.593C268.218 519.593 265.027 516.51 265.027 512.707C265.027 508.904 268.218 505.822 272.156 505.822C276.093 505.822 279.284 508.904 279.284 512.707C279.284 516.51 276.093 519.593 272.156 519.593ZM278.245 473.88C274.308 473.88 271.117 470.797 271.117 466.994C271.117 463.192 274.308 460.109 278.245 460.109C282.183 460.109 285.374 463.191 285.374 466.994C285.374 470.797 282.183 473.88 278.245 473.88Z" fill="#F0F0F0"/>
</svg>
