<svg width="440" height="681" viewBox="0 0 440 681" fill="none" xmlns="http://www.w3.org/2000/svg">
<g filter="url(#filter0_f_90_54)">
<path d="M230.634 629.455C228.026 633.458 221.663 639.79 215.903 639.448C205.219 638.812 196.131 625.666 197.142 619.738C197.675 620.847 200.452 623.927 204.274 626.79C207.748 629.392 214.021 628.638 208.61 625.634C206.716 624.583 201.601 621.417 199.788 618.74C196.118 613.319 194.92 607.206 197.143 602.002C198.07 604.703 200.054 609.806 204.141 614.56C209.25 620.503 213.455 621.83 213.739 621.558C214.023 621.286 213.704 621.635 208.729 616.298C200.798 607.791 196.213 595.483 203.704 584.796C201.697 593.301 204.995 598.857 209.299 606.582C211.412 610.372 217.008 616.466 217.501 615.33C217.994 614.193 217.054 613.416 215.024 610.537C212.994 607.658 210.081 601.244 208.892 597.069C206.272 587.87 202.732 578.798 216.295 568.647C211.532 578.979 214.658 589.848 217.739 599.067C218.391 601.021 223.583 612.695 226.503 611.003C228.257 609.986 224.877 604.986 224.186 603.48C223.495 601.974 220.154 595.061 219.359 593.026C218.564 590.991 216.751 586.645 217.219 580.323C217.687 574 220.01 570.095 220.927 568.831C221.845 567.567 225.273 564.562 228.264 563.548C230.657 562.737 233.144 561.75 234.088 561.357C232.668 563.232 229.672 568.026 228.464 574.106C226.955 581.707 227.518 587.14 227.999 589.651C228.48 592.162 229.793 595.892 231.221 595.433C232.649 594.974 233.17 590.507 233.306 588.349C233.443 586.19 233.659 581.146 233.925 579.213C234.19 577.28 235.645 571.647 237.273 567.78C238.9 563.913 241.029 562.397 244.742 560.621C247.712 559.201 255.227 559.135 256.713 559.518C254.693 559.635 252.184 561.316 250.271 564.61M230.634 629.455L231.28 631.947M230.634 629.455C228.741 629.813 222.532 632.408 218.873 632.67C214.298 632.999 211.574 632.223 208.748 631.155M230.634 629.455C228.456 629.27 223.046 628.476 218.832 626.781C213.564 624.663 208.346 621.657 205.705 619.887M230.634 629.455C230.575 628.824 230.543 627.967 230.557 626.906M230.634 629.455C235.355 637.603 251.659 644.159 259.864 638.708M250.271 564.61C250.112 573.995 254.224 566.119 255.321 569.842C256.204 572.838 256.456 576.296 252.459 583.693C250.03 588.19 240.649 596.346 243.876 596.87C247.57 597.469 253.39 592.704 257.485 586.382C262.526 578.599 260.984 570.746 261.057 569.976C261.427 570.997 267.776 576.822 268.537 580.737C269.107 583.669 269.751 588.892 264.827 595.29C259.903 601.687 251.533 605.614 249.225 606.672C247.379 607.519 241.841 608.843 239.303 609.399C238.139 609.909 236.475 611.152 239.136 612.042C242.462 613.154 253.547 608.008 258.366 604.927C263.866 601.412 270.21 593.989 272.26 587.419C272.643 589.453 274.548 595.38 274.27 599.675C273.922 605.042 272.972 608.738 268.469 612.425C263.967 616.111 259.773 618.24 255.755 619.609C251.737 620.977 246.248 621.588 244.498 621.622C243.097 621.65 239.34 621.248 237.644 621.323C240.162 624.78 246.211 624.505 250.06 623.878C253.045 623.391 257.705 622.56 259.971 621.646C264.153 619.961 274.228 615.601 274.248 609.386C275.069 614.652 272.084 622.765 268.615 626.529C264.747 630.726 258.944 632.216 256.804 632.414C254.664 632.612 246.914 632.592 244.123 631.981C241.889 631.492 239.783 631.222 239.01 631.148C238.314 631.045 237.24 631.116 238.505 632.226C239.77 633.335 242.936 634.284 244.362 634.619C245.616 634.827 248.429 635.253 249.64 635.294C251.155 635.346 256.324 635.252 258.129 634.851C259.933 634.45 262.765 633.694 264.749 632.492C266.336 631.53 267.869 630.014 268.436 629.377C268.913 633.706 265.748 641.61 258.781 644.893C252.074 648.053 245.806 645.026 240.081 642.302C239.461 641.917 237.526 641.43 238.81 643.611C241.951 648.941 251.014 650.481 256.571 649.503C256.25 650.894 252.199 654.995 249.219 656.256C244.904 658.082 240.169 657.43 236.646 654.531M250.271 564.61C249.311 567.441 246.309 576.184 245.377 578.644C244.38 581.274 243.675 587.58 237.605 596.062M231.28 631.947C230.253 634.506 229.631 637.059 229.378 639.051C229.124 641.042 229.749 644.639 231.628 648.537C232.664 650.685 234.685 652.918 236.646 654.531M231.28 631.947C232.45 635.383 237.58 651.942 244.866 652.585M231.28 631.947C231.572 636.621 232.436 646.672 233.558 649.484C234.68 652.296 236.084 654.02 236.646 654.531M230.71 623.754C232.671 624.799 237.625 626.95 241.745 627.197C246.895 627.506 255.582 627.641 261.162 626.139C265.626 624.937 268.146 623.199 268.848 622.48M230.71 623.754C230.617 624.944 230.57 626 230.557 626.906M230.71 623.754C230.778 622.877 230.872 621.928 230.996 620.912M231.61 616.804C232.976 617.407 237.682 618.057 245.577 615.833C255.446 613.052 259.933 610.57 264.163 607.635C267.546 605.287 269.658 603.09 270.292 602.285M231.61 616.804C231.352 618.271 231.151 619.644 230.996 620.912M231.61 616.804C231.949 614.878 232.385 612.791 232.941 610.567M234.139 606.202C234.493 605.02 234.879 603.809 235.3 602.572C236.114 600.181 236.882 598.02 237.605 596.062M234.139 606.202C236.11 605.991 241.128 604.213 247.435 600.973C255.481 596.839 256.448 595.618 261.351 591.181C264.42 588.404 265.347 585.33 265.499 583.935M234.139 606.202C233.688 607.707 233.291 609.164 232.941 610.567M230.557 626.906C227.019 625.414 219.17 621.639 216.083 618.473C212.223 614.515 209.908 612.468 207.65 608.933M230.996 620.912C229.416 620.59 225.234 618.324 221.143 611.84C216.03 603.734 214.017 599.23 211.755 591.468C209.945 585.259 210.663 581.653 211.248 580.626M232.941 610.567C231.734 608.658 228.499 602.86 225.205 594.94C221.911 587.021 223.342 576.656 224.47 572.464M237.605 596.062C237.397 591.379 239.251 578.085 240.583 574.459C241.915 570.833 243.95 567.106 244.801 565.696" stroke="white" stroke-opacity="0.5" stroke-linecap="round" stroke-linejoin="round"/>
<path d="M226.159 118.426C216.348 110.846 208.001 104.141 208.001 104.141M304.348 163.098C307.142 164.091 309.898 164.989 312.586 165.771M282.266 138.008C282.266 138.008 282.259 138.012 282.243 138.024C281.943 138.227 278.757 140.327 273.692 141.747C270.109 142.752 265.587 143.418 260.484 142.827L260.482 142.829C260.482 142.829 260.482 142.829 260.48 142.826L260.478 142.828L260.476 142.826C260.476 142.826 260.476 142.826 260.474 142.827M260.537 142.984L260.54 142.982L260.538 142.98M261.541 142.269C261.541 142.269 270.128 140.773 269.487 129.728M273.617 141.643C277.236 144.731 281.201 145.12 282.48 145.162M312.307 150.67C312.125 147.541 310.683 143.783 306.768 139.54M285.422 141.364C284.501 142.116 283.256 143.329 282.317 144.987C281.109 147.121 280.408 149.992 281.552 153.565C282.092 155.258 283.048 157.11 284.561 159.117C291.291 168.044 299.833 165.747 304.562 163.242C306.281 162.33 307.496 161.393 307.938 160.954C308.449 160.448 309.554 159.312 310.503 157.639M325.859 173.586C331.152 174.379 337.632 173.396 342.745 168.648C350.454 161.495 349.124 153.296 343.604 146.377C338.085 139.458 326.2 139.231 320.471 142.554C317.43 144.316 314.027 146.99 312.062 150.478C310.953 152.444 310.303 154.672 310.429 157.142C310.501 158.547 310.827 160.032 311.462 161.593C312.115 163.195 312.77 164.531 313.41 165.647M342.211 168.576C350.31 171.209 352.011 177.987 350.038 183.508C349.474 185.085 348.609 186.563 347.508 187.808C346.222 189.261 344.746 190.386 343.185 191.226C338.74 193.625 333.619 193.712 330.309 192.505C327.128 191.345 324.894 187.936 323.868 186.067M342.946 189.604C342.946 189.604 342.499 192.693 344.817 192.397C347.135 192.102 347.111 189.426 348.953 187.998C350.796 186.571 353.816 186.018 353.938 184.657C354.057 183.297 352.616 181.999 349.894 183.339M230.788 122.142C230.788 122.142 236.401 126.618 245.926 120.986C255.452 115.351 255.37 107.406 255.37 107.406C246.12 105.081 238.404 108.643 232.33 112.037C229.001 113.895 227.113 116.523 226.507 118.568M226.507 118.568C226.427 118.834 226.371 119.09 226.335 119.331C226.143 120.631 226.756 121.131 227.529 121.672C229.673 123.174 230.811 121.014 228.823 118.962C228.409 118.533 227.445 118.199 226.507 118.568ZM226.507 118.568C226.276 118.653 226.039 118.772 225.8 118.923C223.949 120.074 221.897 123.106 221.329 129.369C220.387 139.753 225.783 150.089 225.783 150.089C225.783 150.089 232.052 141.176 235.157 134.173M235.157 134.173C232.905 130.925 231.884 127.916 231.552 126.688C230.854 124.102 233.302 122.654 236.401 126.618C237.405 127.903 236.643 130.818 235.157 134.173ZM235.157 134.173C237.651 137.771 241.657 141.665 247.91 143.761C247.91 143.761 246.035 133.931 239.535 128.867C243.526 131.736 250.496 137.039 253.223 138.72C255.404 140.065 257.974 141.587 260.845 143.216C260.847 143.215 260.847 143.215 260.847 143.215L260.849 143.217C260.85 143.219 260.85 143.219 260.85 143.219L260.852 143.218M275.558 150.866C277.501 151.843 279.492 152.823 281.517 153.789M265.661 144.683C265.661 144.683 272.633 147.549 278.167 154.184C283.701 160.82 287.179 170.563 287.179 170.563C287.179 170.563 282.06 172.726 270.23 166.544C258.401 160.362 259.604 149.067 260.35 146.908C261.097 144.752 262.639 144.491 264.233 147.266C265.827 150.04 260.479 161.901 255.29 166.192C249.645 170.861 242.72 173.627 242.72 173.627C242.72 173.627 243.512 162.998 248.557 152.979C253.603 142.96 259.934 143.971 259.934 143.971L259.933 143.975M261.131 161.059C261.131 161.059 260.992 168.424 262.467 170.592C262.467 170.592 248.025 184.98 270.748 201.29C270.748 201.29 276.761 193.886 272.981 184.346C269.201 174.806 263.197 172.941 263.197 172.941C263.197 172.941 269.618 191.197 267.934 193.608M256.898 151.741C256.898 151.741 250.627 161.057 249.883 162.461C249.418 163.342 251.367 166.064 253.768 162.668C256.442 158.884 253.319 154.886 253.319 154.886M265.513 151.29C265.513 151.29 274.089 164.896 279.642 166.06M268.786 162.889C268.786 162.889 266.606 156.773 268.768 152.777M242.065 138.727C242.065 138.727 241.554 134.935 239.721 132.065C237.888 129.195 237.888 129.195 237.888 129.195M230.244 124.957C230.244 124.957 224.425 134.05 226.81 139.513M232.596 118.312C232.596 118.312 240.356 116.958 245.26 113.781C250.163 110.605 250.471 113.936 247.301 115.814C244.131 117.692 240.396 114.77 240.396 114.77M234.088 121.083C234.088 121.083 234.143 117.446 236.407 115.571M279.363 130.745C279.363 130.745 270.153 132.798 264.148 123.509C258.985 115.517 268.185 106.915 273.58 106.485C276.795 106.229 284.763 106.153 289.681 116.97M264.98 191.283C264.98 191.283 263.419 185.22 267.201 181.485M225.811 130.271C225.811 130.271 230.152 133.607 229.557 137.838M282.04 137.067C282.866 138.563 284.517 140.232 285.885 141.218C292.322 145.515 301.056 145.214 307.062 139.641C308.701 138.119 310.72 135.723 311.273 133.502C314.455 120.714 301.03 114.875 297.682 115.207C296.224 115.351 292.286 115.345 287.627 117.785C287.627 117.785 282.014 120.796 280.423 126.673C278.864 132.417 282.04 137.067 282.04 137.067ZM312.28 165.771C312.28 165.771 312.53 165.839 312.964 165.979C316.477 171.215 318.612 171.606 318.612 171.606C320.352 172.66 322.726 173.515 325.409 173.916C326.325 175.301 326.881 176.872 326.834 178.635C326.747 181.849 325.582 184.414 324.013 186.411C321.285 189.885 318.496 191.289 315.687 192.101C312.06 193.15 308.621 191.49 308.621 191.49C302.788 189.55 296.815 182.283 299.694 174.8C302.571 167.32 312.28 165.771 312.28 165.771ZM314.409 186.579C313.531 186.032 309.134 187.768 309.156 185.292C309.179 182.816 312.389 181.383 313.247 182.008C314.105 182.632 315.591 184.084 314.974 184.581C314.357 185.078 313.584 184.802 313.794 184.348C314 183.893 318.393 181.496 319.495 182.376C320.596 183.256 318.779 187.06 318.156 186.363C317.533 185.665 317.677 185.448 318.15 185.168C318.622 184.889 321.609 185.852 320.403 187.764C319.197 189.675 316.248 189.422 315.955 188.331C315.657 187.237 314.409 186.579 314.409 186.579ZM300.67 129.223C300.267 128.641 296.355 130.482 295.999 128.303C295.642 126.124 298.366 124.644 299.342 124.797C300.319 124.95 300.591 126.116 299.722 126.231C298.854 126.347 294.571 122.457 296.515 121.232C298.46 120.006 301.662 120.435 302.317 122.171C302.972 123.907 302.023 124.669 302.71 125.257C303.397 125.845 306.496 122.861 307.421 125.545C308.346 128.229 303.77 130.206 303.434 129.543C303.1 128.878 303.116 128.47 303.773 128.147C304.431 127.824 306.53 128.241 305.804 131.393C305.076 134.546 301.654 133.783 300.941 132.612C300.227 131.444 301.732 130.753 300.67 129.223ZM335.799 157.357C335.591 156.689 331.313 157.446 331.634 155.247C331.956 153.048 334.995 152.327 335.876 152.731C336.76 153.133 336.664 154.333 335.802 154.217C334.94 154.102 332.046 149.225 334.268 148.548C336.489 147.871 339.405 149.121 339.502 150.971C339.597 152.821 338.466 153.308 338.941 154.057C339.417 154.805 343.268 152.73 343.333 155.565C343.398 158.4 338.447 159.118 338.329 158.389C338.211 157.659 338.352 157.267 339.075 157.127C339.798 156.986 341.671 157.938 340.024 160.795C338.378 163.653 335.351 162.022 335.029 160.704C334.705 159.387 336.347 159.11 335.799 157.357ZM275.964 116.922C275.396 115.03 278.458 115.852 278.385 114.377C278.331 113.344 278.49 111.922 280.136 111.68C281.444 111.488 284.43 113.935 281.89 116.691C280.581 118.114 280.01 115.494 280.797 115.278C281.468 115.094 283.991 115.251 284.327 116.513C284.664 117.777 284.203 119.294 282.385 119.389C281.15 119.454 280.96 118.045 278.985 118.533C277.267 118.959 276.45 118.542 275.964 116.922ZM297.661 161.443C296.336 160.812 299.05 158.89 298.863 158.388C298.571 157.617 295.853 158.343 297.882 156.293C299.91 154.242 302.003 155.544 301.564 156.371C301.124 157.198 300.435 156.819 300.504 156.561C300.572 156.301 303.297 153.733 305.323 154.48C307.351 155.226 303.86 159.128 303.502 158.594C303.145 158.061 303.119 157.035 304.103 157.563C305.087 158.091 305.398 159.557 303.148 160.502C300.898 161.447 301.858 159.591 300.893 159.764C299.928 159.936 299.304 162.227 297.661 161.443Z" stroke="white" stroke-opacity="0.5" stroke-miterlimit="10"/>
<path d="M242.034 461.282C242.034 461.282 242.57 454.583 255.898 450.965C269.226 447.347 299.12 452.878 302.258 453.826C305.396 454.773 315.363 459.422 317.737 469.553C320.112 479.685 315.38 487.155 315.38 487.155M285.026 495.319C283.328 498.614 275.308 511.869 259.05 505.507C240.557 498.271 253.652 481.056 253.652 481.056M247.315 476.847C244.512 477.931 238.714 479.471 234.069 476.158M234.069 476.158C233.934 476.062 233.801 475.962 233.669 475.857C227.26 470.809 228.069 462.795 229.288 459.371C230.508 455.944 231.939 453.624 232.777 452.24C233.615 450.856 240.191 443.745 241.379 441.635C242.567 439.527 247.337 426.932 255.434 422.091C263.534 417.249 269.541 419.481 272.405 419.703C275.269 419.925 282.284 422.369 286.636 426.179C290.991 429.987 293.933 437.767 293.384 444.021C293.074 447.597 291.909 450.179 290.969 451.736M234.069 476.158C225.543 485.004 211.868 486.119 211.868 486.119M221.457 483.113C221.457 483.113 213.422 480.075 211.553 470.229C209.683 460.383 215.322 454.293 215.322 454.293C215.322 454.293 215.882 458.221 221.932 463.37C227.982 468.519 226.562 475.959 226.334 477.457C226.106 478.953 224.253 481.782 223.058 481.584C221.864 481.386 218.563 478.96 216.904 472.474C215.245 465.987 216.301 460.726 216.301 460.726M219.984 477.476C219.984 477.476 221.637 475.546 221.346 471.625C221.055 467.705 219.958 465.51 219.958 465.51M216.902 472.475C216.902 472.475 213.525 470.55 212.894 468.179M241.034 463.468C243.08 457.257 249.657 455.462 254.219 454.924C258.781 454.386 275.771 455.548 280.142 455.911C284.516 456.273 300.083 459.633 302.955 460.919C305.825 462.206 320.168 467.572 316.958 482.541C313.749 497.509 298.119 497.489 295.412 497.683C292.706 497.878 281.585 494.376 277.088 492.638C272.591 490.899 256.726 482.907 252.458 480.371C248.19 477.834 238.443 471.324 241.034 463.468ZM273.007 474.498C274.38 470.777 277.747 463.575 289.128 465.317C300.509 467.059 299.21 476.919 298.527 479.667C297.843 482.416 292.947 492.569 279.763 486.764C271.814 483.264 273.007 474.498 273.007 474.498Z" stroke="white" stroke-opacity="0.5" stroke-miterlimit="10"/>
<path d="M70.8001 163.137C70.8001 163.137 61.4105 160.269 58.338 150.893C55.2656 141.517 57.8862 131.105 66.4377 124.95C74.7521 118.965 83.7596 118.184 90.1012 120.944C96.2467 123.623 100.116 132.587 100.116 132.587M120.729 128.343C120.729 128.343 119.696 124.7 124.403 120.457C130.425 115.029 139.77 118.804 139.77 118.804C135.236 120.278 136.78 126.465 136.182 132.035C135.585 137.604 127.962 138.915 123.929 138.241C119.896 137.566 117.004 134.044 117.11 131.257C117.203 128.838 121.613 129.11 120.602 132.189C119.098 136.771 112.448 137.866 102.145 123.846C91.8418 109.826 107.157 98.2148 107.157 98.2148C107.157 98.2148 106.817 100.962 110.127 105.789C113.438 110.615 114.284 108.931 116.992 115.243C119.698 121.556 114.449 132.002 114.449 132.002M114.451 132.001C114.451 132.001 99.2325 114.43 103.653 109.227C108.074 104.024 106.549 125.38 106.549 125.38M124.815 134.344C124.815 134.344 129.247 125.28 130.327 123.929C131.407 122.577 134.171 122.947 133.726 124.921C133.28 126.898 124.199 128.312 124.199 128.312M110.587 121.482C110.587 121.482 110.033 117.854 111.451 114.592M91.9286 199.244C84.4524 197.007 75.423 188.86 72.1864 176.096C68.9498 163.331 71.1521 154.009 78.1032 145.88C85.0536 137.75 102.856 131.804 111.498 134.037C120.142 136.267 132.299 140.993 137.692 157.049C142.882 172.498 137.199 187.851 123.926 196.523C112.138 204.224 99.4078 201.482 91.9286 199.244ZM102.472 180.571C103.38 181.574 106.247 180.873 106.091 179.202C105.937 177.53 104.199 175.883 103.084 176.723C101.971 177.565 101.378 179.361 102.472 180.571ZM84.2357 153.364C82.9813 153.217 81.7007 155.145 82.9502 156.096C84.2004 157.048 86.4105 157.16 86.5165 156.061C86.6217 154.96 85.7479 153.541 84.2357 153.364ZM112.336 175.11C113.596 175.201 114.787 173.219 113.494 172.325C112.201 171.431 109.988 171.418 109.933 172.521C109.878 173.622 110.819 175.001 112.336 175.11ZM64.6406 136.052C65.1834 136.374 70.6196 132.711 71.6287 134.057C72.6378 135.403 70.9823 136.213 70.4873 135.568C69.9943 134.923 73.7569 130.061 73.3192 129.499C72.8837 128.936 66.6767 132.288 66.3756 130.922C66.0715 129.555 67.6442 128.899 68.0449 129.674C68.4428 130.447 64.0978 135.73 64.6406 136.052ZM78.0048 163.574C80.7309 160.78 105.196 162.664 103.179 166.347C101.165 170.03 79.4615 158.828 78.9456 155.218C78.4297 151.609 90.2534 139.371 94.1852 141.504C98.1171 143.638 108.038 164.838 105.542 165.345C103.047 165.851 95.2702 144.715 98.249 142.12C101.228 139.526 103.48 138.972 108.316 139.296C113.152 139.62 119.41 139.787 120.16 144.634C120.908 149.479 110.438 166.674 107.804 164.683C105.17 162.692 119.887 148.918 125.666 149.436C130.482 149.867 137.823 165.595 132.222 169.446C125.67 173.95 108.687 169.244 108.953 167.309C109.219 165.375 129.191 168.563 131.198 175.976C133.203 183.39 121.769 191.567 116.455 191.547C111.14 191.527 104.869 170.714 106.891 169.424C108.911 168.136 111.729 191.902 109.796 194.533C107.862 197.165 89.3992 195.637 87.8316 188.329C86.264 181.021 102.407 166.476 104.264 168.109C106.121 169.742 88.6522 186.766 82.8963 183.89C77.1404 181.014 74.2501 167.419 78.0048 163.574Z" stroke="white" stroke-opacity="0.5" stroke-miterlimit="10"/>
<path d="M423.152 505.789C423.152 505.789 412.969 509.947 407.104 504.508C401.238 499.07 401.133 497.883 401.133 497.883C401.133 497.883 403.658 495.398 405.119 495.765C406.582 496.13 405.312 497.204 405.041 497.307C404.77 497.409 401.447 496.829 399.89 492.71C398.332 488.592 399.743 485.589 399.743 485.589C399.743 485.589 402.042 484.778 403.511 485.541C403.511 485.541 400.656 484.725 399.812 482.001C399.812 482.001 401.719 477.032 403.687 474.851C403.687 474.851 409.738 476.237 412.447 481.761C412.447 481.761 411.943 478.622 412.471 477.559C412.471 477.559 420.256 486.157 419.167 488.866C418.078 491.575 417.032 488.641 417.633 487.436C418.234 486.231 420.248 483.518 420.248 483.518C420.248 483.518 425.68 490.824 422.159 493.993L425.248 492.307C425.248 492.307 426.6 500.64 424.792 503.908C422.985 507.175 416.131 501.039 413.672 497.489C411.213 493.94 407.6 486.52 407.213 484.024M422.824 508.21C422.824 508.21 416.485 515.086 418.802 523.512C418.802 523.512 421.972 523.69 422.942 521.486C422.942 521.486 418.232 526.597 424.71 535.521C424.71 535.521 428.697 531.944 428.096 530.679C427.494 529.415 425.48 530.004 425.959 531.428C426.436 532.858 428.717 538.799 433.715 540.611C433.715 540.611 434.83 537.319 433.744 535.433C433.744 535.433 435.476 539.027 445.236 538.896C445.236 538.896 445.801 530.873 442.983 527.687C442.983 527.687 447.606 527.431 448.392 528.857C448.392 528.857 444.873 520.541 441.363 520.778C437.853 521.014 440.223 523.678 441.127 523.105C442.03 522.532 444.705 519.109 444.705 519.109C444.705 519.109 442.942 513.459 437.321 512.715C437.321 512.715 439.988 510.902 441.421 511.738C441.421 511.738 430.266 504.241 424.732 506.68C419.198 509.118 433.828 528.746 437.246 530.161M426.963 528.01C426.963 528.01 426.414 520.981 429.966 519.866M427.875 514.34C427.875 514.34 433.003 513.778 436.289 518.853M405.037 491.164C405.037 491.164 409.521 496.445 413.37 495.576M417.771 499.441C417.771 499.441 415.742 490.79 412.662 487.247M405.72 506.102C405.72 506.102 396.56 504.206 391.585 509C391.585 509 394.104 511.722 395.264 511.283C395.264 511.283 382.519 513.04 378.628 518.953C378.628 518.953 380.257 520.634 382.24 520.191C382.24 520.191 375.296 529.404 375.14 532.064C375.14 532.064 378.085 532.404 380.877 530.813C380.877 530.813 374.252 537.377 374.784 541.845C374.784 541.845 378.337 542.263 380.163 540.961C380.163 540.961 377.846 549.494 380.445 551.115C380.445 551.115 387.072 550.906 389.354 547.746C389.354 547.746 389.308 549.373 390.535 550.208C390.535 550.208 398.617 548.377 400.698 540.085C400.698 540.085 401.454 543.398 402.568 543.283C403.683 543.169 408.464 539.827 409.111 531.466C409.111 531.466 410.496 534.694 411.154 534.676C411.154 534.676 417.449 527.242 417.597 524.354M418.002 508.81C418.002 508.81 392.666 534.626 388.777 537.475C384.888 540.324 382.739 534.858 385.683 532.138C390.983 527.243 402.791 525.667 402.791 525.667M396.83 515.208C396.83 515.208 407.41 511.439 411.752 514.39M432.61 506.501C432.61 506.501 440.254 509.316 445.132 506.78C445.132 506.78 444.075 502.013 442.243 501.442C442.243 501.442 446.778 504.893 456.08 501.261C456.08 501.261 455.343 498.325 452.451 497.581C452.451 497.581 458.576 500.317 465.536 493.437C465.536 493.437 462.079 491.187 459.649 491.988C459.649 491.988 465.797 491.501 469.758 483.914C469.758 483.914 468.351 482.494 465.407 482.917C465.407 482.917 469.588 477.888 469.943 472.587C469.943 472.587 464.539 469.464 456.763 472.865C456.763 472.865 457.448 470.077 457.085 467.804C457.085 467.804 450.7 467.003 444.58 471.843C444.58 471.843 445.587 468.592 444.516 467.733C444.516 467.733 433.608 473.696 433.412 479.742C433.412 479.742 432.598 476.602 431.502 476.33C431.502 476.33 422.837 483.296 424.243 489.64M426.669 503.923C426.669 503.923 428.962 497.841 440.943 489.465C452.924 481.09 456.486 478.364 458.829 478.97C461.172 479.576 462.353 483.036 459.451 483.902C456.549 484.768 445.719 488.636 441.886 485.72M430.917 494.47C430.917 494.47 435.332 497.279 441.322 496.046C447.312 494.814 449.917 493.486 449.917 493.486M395.962 504.816C395.962 504.816 388.6 504.613 383.61 499.841C383.61 499.841 383.655 497.987 387.506 496.299C387.506 496.299 377.911 496.481 374.598 489.697C371.284 482.91 372.785 480.964 372.785 480.964C372.785 480.964 378.204 474.894 378.26 478.893C378.316 482.892 372.602 478.505 371.678 475.411C370.754 472.317 370.091 462.458 374.358 455.791L379.969 455.966C379.969 455.966 375.745 451.361 375.571 449.589C375.398 447.817 383.295 435.643 389.221 432.711C389.221 432.711 399.181 435.834 402.589 444.195C402.589 444.195 406.008 444.052 407.496 441.421C407.496 441.421 416.492 458.424 411.099 455.984C405.707 453.544 417.172 452.996 418.906 450.886C418.906 450.886 425.693 461.299 422.643 467.678L427.653 467.793C427.653 467.793 429.169 474.2 425.478 480.1M388.553 443.532C389.062 459.649 399.311 474.15 399.311 474.15C399.311 474.15 407.641 469.39 405.117 456.792M381.587 461.557C381.587 461.557 387.074 466.832 395.195 464.679M383.318 482.551C383.318 482.551 387.516 485.961 396.237 484.959M416.008 531.003C416.008 531.003 409.231 544.936 417.518 552.412L420.018 549.643C420.018 549.643 418.258 556.915 423.819 565.063C429.38 573.211 434.16 571.631 434.16 571.631C434.16 571.631 438.891 566.271 435.343 566.172C431.796 566.073 437.613 573.061 439.617 574.807C441.623 576.555 448.639 580.278 453.009 579.993C453.009 579.993 450.91 573.268 451.618 572.772C452.327 572.276 458.915 581.403 469.737 578.905C469.737 578.905 472.278 574.073 471.735 567.899C471.735 567.899 469.453 563.522 467.616 563.761C467.616 563.761 471.258 562.688 472.582 563.327C472.582 563.327 474.324 559.936 472.545 551.874C472.545 551.874 466.546 543.329 465.971 546.793C465.395 550.257 471.801 545.355 474.415 546.155C474.415 546.155 476.209 540.237 471.124 531.53C471.124 531.53 468.093 527.664 464.223 527.304C464.223 527.304 468.048 525.174 469.621 525.187C469.621 525.187 461.093 511.326 452.822 513.163C444.551 514.999 453.601 511.272 454.711 510.852C454.711 510.852 448.194 505.27 444.019 506.089M441.93 541.873C441.93 541.873 449.623 561.78 465.425 572.036M448.618 571.81C448.618 571.81 445.313 557.898 449.745 551.628M445.894 541.445C445.894 541.445 451.475 540.405 461.259 544.821M432.941 557.065C432.941 557.065 430.797 553.589 429.393 547.686C427.991 541.785 429.407 539.871 429.407 539.871" stroke="white" stroke-opacity="0.5" stroke-miterlimit="10"/>
<path d="M187.092 304.645C187.092 304.645 186.373 305.646 180.235 303.395C174.097 301.144 175.373 291.369 175.373 291.369C175.373 291.369 172.624 299.364 174.563 305.549C176.501 311.733 185.989 313.053 188.429 312.933C190.867 312.816 189.733 311.248 187.287 309.823C184.841 308.398 175.531 315.361 175.531 315.361C175.531 315.361 181.607 317.15 189.541 318.654C197.476 320.157 199.251 322.013 201.527 323.046C203.802 324.078 206.461 327.095 206.61 329.203C206.76 331.311 203.033 337.921 205.251 345.405C207.469 352.89 212.593 357.948 212.593 357.948C212.593 357.948 210.279 351.304 210.815 347.347C211.351 343.389 214.764 342.915 214.439 340.793C214.114 338.672 209.237 337.844 210.691 341.052C212.145 344.259 215.165 353.573 220.304 354.998C225.442 356.423 233.317 360.393 235.412 365.233C235.412 365.233 231.59 353.844 225.407 350.6C219.225 347.356 218.701 339.096 218.701 339.096L213.618 329.225C213.618 329.225 210.831 324.9 204.393 328.431C197.955 331.962 192.2 333.44 191.417 332.106L190.455 327.486C190.455 327.486 194.674 329.669 199.982 324.431C205.289 319.194 204.271 318.579 204.271 318.579M208.816 321.884C205.651 318.536 194.68 314.745 189.117 308.012C181.759 299.104 181.83 283.536 197.617 271.457C212.155 260.334 235.745 262.767 251.798 282.167C270.274 304.497 271.325 324.441 254.832 340.944C242.087 353.693 228.244 350.983 222.322 344.577C216.845 338.653 214.775 328.188 208.816 321.884ZM222.89 335.284C217.222 328.995 217.195 321.956 221.952 316.485C224.893 313.105 235.82 303.714 239.537 300.729C243.254 297.744 250.06 294.074 255.889 302.099C261.2 309.415 261.381 316.125 257.547 323.694C253.744 331.204 245.629 340.402 237.156 341.277C228.683 342.152 226.068 338.808 222.89 335.284ZM196.227 304.225C193.284 300.661 188.827 292.682 193.932 286.771C199.04 280.862 209.909 272.327 218.352 271.996C226.797 271.663 238.782 275.205 238.722 286.3C238.676 294.694 214.405 311.29 209.148 311.249C201.609 311.19 196.227 304.225 196.227 304.225ZM223.688 327.417C224.667 328.269 226.319 328.637 227.85 325.715C229.577 322.416 228.751 320.277 226.079 321.843C222.881 323.715 222.289 326.199 223.688 327.417ZM204.607 304.999C205.235 306.154 206.67 307.125 209.139 305.037C211.926 302.679 211.89 300.405 208.818 300.811C205.136 301.301 203.709 303.349 204.607 304.999ZM198.581 293.756C198.675 295.062 199.586 296.576 202.723 295.872C206.264 295.077 207.182 293.057 204.195 292.004C200.61 290.741 198.444 291.889 198.581 293.756ZM208.333 281.14C207.164 281.543 206.061 282.819 207.702 285.816C209.553 289.2 211.697 289.649 211.717 286.387C211.742 282.476 210.005 280.563 208.333 281.14ZM220.481 278.278C219.259 277.97 217.658 278.426 217.596 281.815C217.523 285.641 219.173 287.189 220.821 284.492C222.796 281.258 222.23 278.715 220.481 278.278ZM232.812 281.199C231.803 280.39 230.14 280.093 228.726 283.085C227.133 286.463 228.042 288.565 230.644 286.883C233.764 284.868 234.257 282.356 232.812 281.199ZM232.97 334.515C234.112 335.088 235.782 335.01 236.545 331.747C237.406 328.062 236.1 326.19 233.919 328.428C231.307 331.106 231.338 333.694 232.97 334.515ZM247.452 330.144C248.501 329.487 249.31 327.982 247.115 325.392C244.637 322.469 242.47 322.503 243.11 325.725C243.88 329.588 245.95 331.086 247.452 330.144ZM254.366 318.413C254.774 317.196 254.497 315.452 251.3 314.781C247.689 314.023 246.066 315.461 248.461 317.655C251.326 320.282 253.785 320.15 254.366 318.413ZM253.953 306.731C254.062 305.438 253.39 303.798 250.167 303.955C246.524 304.134 245.301 305.956 248.108 307.498C251.47 309.345 253.798 308.588 253.953 306.731Z" stroke="white" stroke-opacity="0.5" stroke-miterlimit="10"/>
<path d="M329.915 238.01C329.915 238.01 347.961 267.035 384.67 295.161C421.379 323.286 442.646 325.762 442.646 325.762M351.036 267.099C351.036 267.099 349.38 272.296 349.295 275.991C349.21 279.687 349.53 287.005 349.397 288.914C349.265 290.82 346.037 298.955 347.634 299.069C349.232 299.182 352.318 294.305 352.341 291.605C352.364 288.906 352.025 287.161 352.23 283.625C352.435 280.09 353.985 274.08 353.849 273.134C353.626 271.588 351.936 271.451 351.972 273.153C352.008 274.855 354.021 277.419 354.724 279.197C355.427 280.974 360.563 301.027 360.831 303.682C361.1 306.337 364.611 311.724 364.125 303.175C363.638 294.626 358.271 283.292 356.961 276.337C355.653 269.381 355.653 269.381 355.653 269.381M350.642 264.096C350.74 264.095 364.029 273.814 375.48 277.261C386.932 280.709 376.267 275.073 374.353 274.112C372.439 273.148 367.378 270.153 362.657 267.468C359.953 265.928 357.771 264.19 356.184 262.883M356.184 262.883C353.658 263.062 352.396 263.637 351.762 262.316C351.027 260.781 352.489 260.408 353.648 260.948C354.144 261.179 355.001 261.912 356.184 262.883ZM356.184 262.883C358.019 262.754 360.195 262.514 362.245 262.344C364.111 262.189 365.871 262.094 367.171 262.19C371.868 262.545 385.862 267.935 389.323 268.661C392.786 269.384 405.933 272.93 406.526 271.491C407.118 270.051 402.046 269.128 400.303 268.675C398.826 268.294 376.129 261.616 364.167 259.403M364.167 259.403C361.979 259 360.154 258.743 358.879 258.705C353.626 258.541 349.256 259.263 346.779 259.806M364.167 259.403C365.813 259.349 368.132 259.387 371.272 259.67C378.984 260.371 394.878 265.198 396.317 265.606C397.759 266.014 406.582 266.9 396.9 263.361C387.214 259.822 376.356 257.809 373.428 257.363C370.497 256.915 367.037 256.192 360.789 256.795C354.544 257.397 353.921 258.614 353.921 258.614M358.618 262.678C358.618 262.678 380.825 273.026 386.432 273.508C392.036 273.993 396.648 274.449 386.879 271.013C377.109 267.576 370.5 265.538 368.709 264.736C366.918 263.934 362.247 262.341 362.247 262.341M356.703 274.985C359.703 277.784 367.129 284.773 369.817 287.836C373.222 291.715 378.5 297.1 380.324 300.234C382.148 303.368 386.01 310.589 379.751 303.197C373.489 295.807 367.411 289.017 365.207 286.66C364.432 285.831 363.321 285.021 362.254 284.248M362.254 284.248C360.292 282.827 358.485 281.541 359.22 280.514C359.609 279.971 360.792 281.669 362.254 284.248ZM362.254 284.248C365.051 289.178 368.867 297.33 370.101 299.204C371.979 302.06 377.394 311.198 379.029 314.45C380.664 317.702 383.079 322.361 383.079 322.361C383.079 322.361 385.872 331.095 380.459 323.394C375.046 315.69 363.974 294.217 363.974 294.217L361.092 289.904L361.089 289.901M388.383 281.658C393.453 281.961 402.611 282.409 412.484 282.433C427.419 282.467 424.599 282.094 433.05 282.411C441.496 282.725 435.277 284.223 433.109 284.287C430.944 284.35 424.408 284.998 420.076 285.128C417.739 285.196 411.224 285.048 404.396 284.873M388.383 281.658C387.945 281.696 387.481 281.735 386.981 281.78C377.311 282.64 372.76 283.341 372.76 283.341C372.76 283.341 375.944 286.354 387.83 289.376C399.719 292.394 404.28 292.502 406.58 292.685C408.881 292.871 417.56 291.983 407.451 290.395C397.344 288.807 390.139 286.907 387.242 285.827C386.299 285.475 385.013 284.995 383.692 284.561M388.383 281.658C396.446 280.981 394.912 281.525 406.843 280.965C419.42 280.376 408.632 278.893 406.539 278.767C404.446 278.638 393.781 278.754 385.516 279.757C378.757 280.58 371.517 281.833 369.099 282.264M404.396 284.873C404.393 284.874 404.391 284.874 404.391 284.874M404.396 284.873C406.617 285.666 410.094 286.746 413.836 287.321C420.186 288.296 426.623 288.161 436.054 289.853C445.485 291.545 437.711 291.843 435.63 291.804C433.549 291.765 415.573 290.492 407.264 288.333C402.447 287.081 399.069 285.661 397.082 284.687M404.396 284.873C404.396 284.873 404.39 284.872 404.391 284.874M404.391 284.874C401.935 284.812 399.437 284.746 397.082 284.687M397.082 284.687L397.079 284.687C393.827 284.605 390.843 284.532 388.59 284.496C386.673 284.464 385.052 284.503 383.692 284.561M383.692 284.561C379.076 284.769 377.496 285.232 377.795 284.056C378.068 282.977 380.955 283.667 383.692 284.561ZM381.932 293.035C382.882 295.006 384.58 298.492 386.408 302.071L386.409 302.074M386.409 302.074C387.921 305.037 389.521 308.06 390.864 310.336C390.864 310.336 390.864 310.336 390.865 310.338M386.409 302.074C386.807 305.822 387.904 313.861 390.638 323.352C394.431 336.515 402.035 341.452 403.042 342.286C404.046 343.12 406.916 344.564 404.142 340.949C401.368 337.332 398.586 335.334 395.198 326.424C392.747 319.977 391.416 313.455 390.865 310.338M390.865 310.338C391.252 310.995 391.62 311.587 391.955 312.1C395.587 317.649 409.586 334.54 412.238 337.276C414.89 340.012 423.534 345.327 414.814 335.172C406.095 325.013 401.828 319.651 400.141 317.936C399.749 317.534 398.997 316.41 398.059 314.936M398.059 314.936C396.579 312.617 394.638 309.436 392.925 306.887M398.059 314.936C403.104 318.85 412.94 326.561 419.001 331.83C427.429 339.159 426.945 334.919 420.901 329.112C416.423 324.806 400.433 313.225 392.925 306.887M392.925 306.887C391.061 304.11 389.463 302.079 389.008 302.7C388.715 303.102 390.303 304.676 392.925 306.887ZM392.27 300.782C394.88 300.237 399.665 299.338 403.521 299.176C409.126 298.942 432.115 297.109 439.327 297.435C446.538 297.762 449.026 298.546 439.618 299.546C430.211 300.547 416.014 300.845 412.006 301.195C408.001 301.542 402.785 301.729 402.785 301.729C402.785 301.729 435.261 308.482 437.186 308.815C439.111 309.148 450.42 313.717 434.992 310.825C419.562 307.936 410.713 306.155 403.898 304.778C400.87 304.167 398.138 303.723 396.035 303.417M419.956 317.605C425.992 316.18 442.179 312.463 450.333 311.642C460.474 310.618 471.587 310.165 472.773 310.161C473.959 310.159 483.195 311.881 472.265 312.217C461.336 312.552 454.085 312.326 442.8 314.375C435.348 315.731 427.34 317.74 422.758 318.948M425.365 320.127C425.432 322.189 425.903 327.387 428.748 333.655C432.441 341.799 438.437 352.288 442.01 358.116C445.582 363.945 448.428 363.774 443.679 355.881C438.932 347.989 434.68 339.387 432.777 335.639C430.877 331.89 429.264 327.375 428.586 325.323C428.148 324.002 427.899 322.241 427.776 321.155C431.791 320.626 463.866 318.003 472.8 318.962C481.735 319.922 476.409 320.743 474.253 320.894C472.101 321.047 463.456 321.479 454.259 321.458C445.059 321.438 435.109 322.433 434.056 322.684C433.538 322.807 433.39 322.965 433.59 323.361C433.789 323.768 434.352 324.424 435.243 325.557C435.979 326.492 437.186 328 438.65 329.776M438.65 329.776C440.683 332.243 443.208 335.224 445.647 337.879C449.836 342.446 455.078 348.195 463.578 353.894C472.078 359.593 466.545 358.2 462.259 355.805C457.974 353.409 453.892 350.356 447.94 344.264C441.988 338.173 435.027 329.721 433.029 326.706C432.03 325.198 431.162 323.541 430.538 322.253M438.65 329.776C441.58 331.162 446.352 333.507 449.469 335.494C454.239 338.533 460.864 343.532 466.324 346.555C471.784 349.575 479.567 351.521 480.402 351.843C481.237 352.163 487.699 352.424 481.177 349.568C474.651 346.71 474.807 347.134 467.92 343.791C463.197 341.501 453.807 335.555 446.547 330.608M438.552 324.883C440.33 326.281 443.213 328.339 446.547 330.608M446.547 330.608C449.897 331.913 454.42 333.405 459.263 334.256C469.145 335.989 479.766 337.206 489.668 337.748C499.571 338.289 491.179 335.359 489.304 335.107C487.429 334.859 479.597 334.536 467.515 332.984C460.791 332.118 454.27 329.3 449.752 327.415M449.752 327.415C446.592 327.767 443.403 328.25 443.68 326.143C443.829 325.005 446.155 325.916 449.752 327.415ZM449.752 327.415C450.446 327.338 451.138 327.267 451.79 327.231C455.423 327.031 461.522 326.81 466.624 327.237C471.726 327.665 476.715 328.693 484.4 329.932C492.086 331.175 487.209 328.781 485.44 328.157C483.673 327.529 479.909 326.042 467.029 325.151C454.149 324.261 442.488 324.619 442.488 324.619" stroke="white" stroke-opacity="0.5" stroke-miterlimit="10"/>
</g>
<defs>
<filter id="filter0_f_90_54" x="52.5996" y="93.1011" width="446.309" height="568.674" filterUnits="userSpaceOnUse" color-interpolation-filters="sRGB">
<feFlood flood-opacity="0" result="BackgroundImageFix"/>
<feBlend mode="normal" in="SourceGraphic" in2="BackgroundImageFix" result="shape"/>
<feGaussianBlur stdDeviation="2" result="effect1_foregroundBlur_90_54"/>
</filter>
</defs>
</svg>
